<?xml version="1.0" encoding="UTF-8"?>
<svg width="19px" height="22px" viewBox="0 0 19 22" version="1.1" xmlns="http://www.w3.org/2000/svg" xmlns:xlink="http://www.w3.org/1999/xlink">
    <!-- Generator: Sketch 61.2 (89653) - https://sketch.com -->
    <title>Slice 1</title>
    <desc>Created with Sketch.</desc>
    <g id="Page-1" stroke="none" stroke-width="1" fill="none" fill-rule="evenodd">
        <g id="icon-clip" fill="#FC8181" fill-rule="nonzero">
            <path d="M17.12,10.95 L10.54,17.54 C8.58767341,19.495088 5.42008801,19.4973266 3.465,17.545 C1.50991199,15.5926734 1.50767341,12.425088 3.46,10.47 L10.05,3.87 C11.2236051,2.69915636 13.1241563,2.70139495 14.295,3.87500003 C15.4658436,5.04860511 15.4636051,6.94915633 14.29,8.12 L7.71,14.71 C7.31787783,15.1021222 6.68212217,15.1021222 6.29,14.71 C5.89787783,14.3178778 5.89787783,13.6821222 6.29,13.29 L12.88,6.71 C13.1336586,6.45634143 13.2327235,6.08662601 13.139878,5.74012196 C13.0470326,5.39361791 12.7763821,5.12296744 12.429878,5.03012196 C12.083374,4.93727648 11.7136586,5.03634143 11.46,5.29 L4.88,11.88 C3.77856456,13.062039 3.8110645,14.9040389 4.9535128,16.0464872 C6.09596111,17.1889355 7.93796098,17.2214354 9.12,16.12 L15.71,9.54 C17.665088,7.58491198 17.6650879,4.41508805 15.7099999,2.46000005 C13.754912,0.504912059 10.585088,0.504912035 8.63,2.46 L2.05,9.06 C-0.683809512,11.7938095 -0.683809512,16.2261905 2.05,18.96 C4.78380951,21.6938095 9.21619049,21.6938095 11.95,18.96 L18.54,12.36 C18.8771653,11.9608541 18.8502154,11.369422 18.4781468,11.0025939 C18.1060783,10.6357658 17.5143235,10.6172073 17.12,10.96 L17.12,10.95 Z" id="Path"></path>
        </g>
    </g>
</svg>