<?xml version="1.0" encoding="UTF-8"?>
<svg width="18px" height="30px" viewBox="0 0 18 30" version="1.1" xmlns="http://www.w3.org/2000/svg" xmlns:xlink="http://www.w3.org/1999/xlink">
    <!-- Generator: Sketch 61.2 (89653) - https://sketch.com -->
    <title>pin_disabled</title>
    <desc>Created with Sketch.</desc>
    <g id="Page-1" stroke="none" stroke-width="1" fill="none" fill-rule="evenodd">
        <g id="pin" fill-rule="nonzero">
            <path d="M8.69625,29.0873 L8.07905,25.5932 L8.07365,15.684 C8.07365,15.4907 8.23045,15.3344 8.42375,15.3344 L9.64645,15.3344 C9.83975,15.3344 9.99655,15.4907 9.99655,15.684 L9.99655,25.5326 L9.38565,29.0864 C9.35685,29.2543 9.21135,29.3764 9.04145,29.3764 C8.87105,29.3764 8.72605,29.2553 8.69625,29.0873 Z" id="Path" fill="#B3160F"></path>
            <path d="M14.05675,3.2442 C14.23305,3.2007 14.39475,3.1272 14.53785,3.0138 C14.72935,2.8621 14.87865,2.6589 14.96475,2.4301 C15.02085,2.2811 15.04965,2.1221 15.04965,1.9628 C15.04965,1.2291 14.44415,0.6236 13.71055,0.6236 L11.94045,0.6236 L6.00135,0.6236 L4.27785,0.6236 C3.55235,0.6236 2.93865,1.2373 2.93865,1.9628 C2.93865,2.495 3.27725,2.9886 3.76725,3.1921 C3.85545,3.2286 3.94765,3.2554 4.04175,3.2715 L13.94365,3.2715 C13.98135,3.2626 14.01915,3.2535 14.05675,3.2442 Z" id="Path" fill="#B3160F"></path>
            <rect id="Rectangle" fill="#E6E6E6" opacity="0.1" x="8.07365" y="18.2277" width="1.9229" height="1.9531"></rect>
            <path d="M16.83475,17.225 C16.67255,16.8449 16.43565,16.4976 16.14215,16.2068 C15.90545,15.9723 15.63595,15.7857 15.34335,15.6282 C15.06265,15.477 14.73185,15.4185 14.43325,15.3005 C13.58065,14.9637 12.75275,14.4587 12.16995,13.7407 C11.88635,13.3912 11.94045,13.0545 11.94045,12.6314 C11.94045,12.3521 11.94045,12.0729 11.94045,11.7936 C11.94045,11.4494 11.94045,11.1052 11.94045,10.7609 C11.94045,10.3785 11.94045,9.9962 11.94045,9.6139 C11.94045,9.2204 11.94045,8.8269 11.94045,8.4335 C11.94045,8.0557 11.94045,7.678 11.94045,7.3004 C11.94045,6.9654 11.94045,6.6304 11.94045,6.2954 C11.94045,6.0301 11.94045,5.7647 11.94045,5.4994 C11.94045,5.3062 11.94065,5.1129 11.93955,4.9196 C11.93895,4.7969 12.03645,4.6827 12.10265,4.5843 C12.18005,4.4694 12.26445,4.3591 12.35545,4.2546 C12.53575,4.0476 12.74195,3.8631 12.96875,3.7083 C13.14425,3.5885 13.33115,3.4856 13.52485,3.3983 C13.65865,3.338 13.80125,3.3048 13.94365,3.2715 L4.04175,3.2715 C4.31035,3.3173 4.55485,3.4424 4.78845,3.5817 C5.01285,3.7156 5.22215,3.8749 5.40905,4.0578 C5.53855,4.1845 5.65685,4.3225 5.76305,4.4693 C5.85505,4.5964 6.00335,4.7651 6.00235,4.928 C6.00065,5.1947 6.00135,5.4614 6.00135,5.728 C6.00135,6.0204 6.00135,6.3128 6.00135,6.6051 C6.00135,6.9587 6.00135,7.3122 6.00135,7.6658 C6.00135,8.053 6.00135,8.4402 6.00135,8.8273 C6.00135,9.2207 6.00135,9.614 6.00135,10.0072 C6.00135,10.3791 6.00135,10.7509 6.00135,11.1228 C6.00135,11.4456 6.00135,11.7684 6.00135,12.0913 C6.00135,12.3376 6.00135,12.5839 6.00135,12.8301 C6.00135,13.0953 6.03105,13.3255 5.87005,13.5533 C5.26335,14.4116 4.27415,15.0465 3.28795,15.3782 C2.72905,15.5296 2.23995,15.8207 1.84395,16.205 C1.27335,16.7872 0.91235,17.5908 0.91235,18.4641 C0.91235,18.534 0.91235,18.6155 0.92405,18.6854 L17.07595,18.6854 C17.08765,18.6155 17.08765,18.534 17.08765,18.4642 C17.08765,18.0393 17.00145,17.6159 16.83475,17.225 Z" id="Path" fill="#B3160F"></path>
            <path d="M5.69825,3.2715 C6.62845,3.7366 6.82135,4.9406 6.82135,4.9406 L6.82135,13.3006 C6.82135,13.6563 6.71205,14.0078 6.50775,14.2991 C6.31155,14.579 6.04985,14.806 5.79535,15.0309 C5.53525,15.2607 5.25835,15.4599 4.95205,15.6244 C4.79225,15.7102 4.62645,15.7902 4.45715,15.8556 C4.18535,15.9605 3.89335,15.9898 3.61195,16.0581 C2.96705,16.2147 2.38705,16.5904 2.09995,17.2037 C2.01485,17.3855 1.95665,17.5805 1.92785,17.7791 C1.92595,17.7917 1.90235,18.0227 1.90955,18.0227 C1.90985,18.0227 2.61605,18.0227 2.61605,18.0227 C2.58935,18.0227 2.68315,17.6045 2.69695,17.5661 C2.74295,17.4381 2.80945,17.3182 2.89295,17.211 C3.10125,16.9439 3.40385,16.7664 3.71875,16.6529 C4.12775,16.5056 4.56505,16.4925 4.96855,16.3206 C5.05095,16.2855 5.12215,16.2345 5.20745,16.2023 C6.30965,15.6425 6.91225,14.8973 7.21075,14.413 C7.37845,14.1409 7.46085,13.8302 7.45755,13.5107 L7.36985,5.0121 C7.36985,3.5454 5.69825,3.2715 5.69825,3.2715 Z" id="Path" fill="#B3160F"></path>
        </g>
    </g>
</svg>